<svg width="111" height="14" viewBox="0 0 111 14" fill="none" xmlns="http://www.w3.org/2000/svg">
<path d="M7.70379 0.745442C9.97188 0.745442 11.8235 1.71978 13.0243 3.49866L10.7764 5.41095C9.97188 4.28702 8.99753 3.70485 7.64719 3.70485C5.56913 3.70485 4.27539 5.07135 4.27539 7.15344C4.27539 9.27192 5.6419 10.695 7.83721 10.695C9.01775 10.695 9.95571 10.2826 10.5541 9.59131V9.00913H7.66741V6.2357H13.7763V10.1331C13.1941 11.164 12.3693 11.9888 11.302 12.6235C10.2347 13.242 9.03392 13.5614 7.70379 13.5614C3.99238 13.618 0.923798 10.7314 0.976356 7.15344C0.919755 3.59569 3.99238 0.688841 7.70379 0.745442Z" fill="#46A358"/>
<path d="M22.9577 13.3315L20.1681 9.49071H18.8379V13.3315H15.6157V0.968262H20.4672C23.2204 0.968262 25.246 2.65415 25.246 5.2214C25.246 6.73749 24.5142 7.99483 23.2973 8.74277L26.5559 13.3315H22.9577ZM18.8339 6.68089H20.4834C21.3809 6.68089 21.9631 6.09871 21.9631 5.2214C21.9631 4.34409 21.3809 3.77808 20.4834 3.77808H18.8339V6.68089Z" fill="#46A358"/>
<path d="M27.8335 0.968262H36.4126V3.87107H31.0557V5.57718H34.8763V8.27379H31.0557V10.4287H36.639V13.3315H27.8335V0.968262Z" fill="#46A358"/>
<path d="M38.644 0.968262H47.223V3.87107H41.8662V5.57718H45.6867V8.27379H41.8662V10.4287H47.4494V13.3315H38.644V0.968262Z" fill="#46A358"/>
<path d="M60.4194 0.968102V13.5577H59.3884L52.6812 7.05671V13.3313H49.459V0.741699H50.4899L57.1971 7.1497V0.968102H60.4194Z" fill="#46A358"/>
<path d="M64.2642 9.1349C64.996 10.1092 65.7641 10.7278 67.0174 10.7278C67.8624 10.7278 68.2909 10.4286 68.2909 9.82624C68.2909 9.28449 68.0079 9.11468 67.0336 8.68209L65.7601 8.12013C63.7184 7.21856 62.6309 6.05825 62.6309 4.39258C62.6309 2.20132 64.43 0.737793 66.9568 0.737793C68.9984 0.737793 70.4417 1.71213 71.1897 3.22822L69.0348 4.87772C68.4365 3.9802 67.8745 3.56782 66.9932 3.56782C66.318 3.56782 65.8895 3.83061 65.8895 4.35619C65.8895 4.80495 66.1522 5.05157 66.9568 5.36691L68.3799 5.96527C70.5347 6.86683 71.5454 7.95033 71.5454 9.69282C71.5454 12.0903 69.5766 13.5538 67.0093 13.5538C64.7817 13.5538 62.9826 12.4865 62.0811 10.7804L64.2642 9.1349Z" fill="#46A358"/>
<path d="M73.3931 0.968262H76.6152V5.48419H81.131V0.968262H84.3531V13.3315H81.131V8.387H76.6152V13.3315H73.3931V0.968262Z" fill="#46A358"/>
<path d="M92.8434 0.741705C96.4415 0.66489 99.6071 3.60812 99.5303 7.1497C99.6031 10.7277 96.4415 13.6143 92.8434 13.5577C89.229 13.6143 86.116 10.7277 86.1928 7.1497C86.116 3.60812 89.229 0.668933 92.8434 0.741705ZM92.8595 3.70111C90.8745 3.70111 89.4878 5.10803 89.4878 7.1497C89.4878 8.18064 89.8071 9.02156 90.4257 9.66034C91.0443 10.2789 91.869 10.5983 92.8595 10.5983C94.7718 10.5983 96.2313 9.21158 96.2313 7.1497C96.2354 5.10803 94.7718 3.70111 92.8595 3.70111Z" fill="#46A358"/>
<path d="M101.374 0.968262H106.225C108.979 0.968262 111.004 2.65415 111.004 5.2214C111.004 7.75226 108.926 9.49071 106.225 9.49071H104.596V13.3315H101.374V0.968262ZM106.242 6.68089C107.139 6.68089 107.721 6.09871 107.721 5.2214C107.721 4.34409 107.139 3.77808 106.242 3.77808H104.592V6.68089H106.242Z" fill="#46A358"/>
</svg>
