<?xml version="1.0" encoding="UTF-8"?>
<svg xmlns="http://www.w3.org/2000/svg" xmlns:xlink="http://www.w3.org/1999/xlink" width="0" height="0">
<symbol id="13%" width="80" height="29" viewBox="0 0 80 29" fill="none">
<rect width="80" height="29" fill="#46A358"/>
<path d="M13.048 9.44L9.384 10.64L9.8 12.128L11.944 11.44V20H13.64V9.44H13.048ZM23.1384 16.608C23.1384 15.696 22.8664 14.96 22.3224 14.4C21.7784 13.84 21.1224 13.488 20.3384 13.36L22.8984 9.904V9.44H16.3224V10.992H20.2584L17.7944 14.304V14.768H18.9624C20.5144 14.768 21.3944 15.424 21.3944 16.624C21.3944 17.824 20.4984 18.624 19.2344 18.624C18.1464 18.624 17.3944 18.032 16.7544 17.056L15.5704 17.888C16.2744 19.248 17.5704 20.176 19.2824 20.176C21.3624 20.176 23.1384 18.752 23.1384 16.608ZM24.7416 11.856C24.7416 13.328 25.9416 14.464 27.4296 14.464C28.8696 14.464 30.0856 13.328 30.0856 11.856C30.0856 10.416 28.8696 9.264 27.4296 9.264C25.9416 9.264 24.7416 10.416 24.7416 11.856ZM26.8536 20H28.2616L34.3256 9.44H32.9016L26.8536 20ZM28.7576 11.856C28.7576 12.672 28.1816 13.264 27.4296 13.264C26.6456 13.264 26.1016 12.672 26.1016 11.856C26.1016 11.04 26.6616 10.448 27.4296 10.448C28.1816 10.448 28.7576 11.072 28.7576 11.856ZM31.0776 17.568C31.0776 19.008 32.2616 20.16 33.7336 20.16C35.1896 20.16 36.4056 19.008 36.4056 17.568C36.4056 16.096 35.2056 14.96 33.7336 14.96C32.2616 14.96 31.0776 16.096 31.0776 17.568ZM35.0616 17.568C35.0616 18.352 34.5016 18.96 33.7496 18.96C32.9656 18.96 32.4216 18.384 32.4216 17.568C32.4216 16.736 32.9656 16.16 33.7496 16.16C34.5016 16.16 35.0616 16.752 35.0616 17.568ZM42.5474 14.72C42.4834 17.744 45.0594 20.224 48.0834 20.176C51.0754 20.224 53.6994 17.744 53.6354 14.72C53.6994 11.696 51.0754 9.216 48.0834 9.264C45.0754 9.216 42.4994 11.696 42.5474 14.72ZM51.8914 14.704C51.8914 16.96 50.2594 18.624 48.0994 18.624C45.9074 18.624 44.3074 16.96 44.3074 14.704C44.3074 12.48 45.9074 10.816 48.0994 10.816C50.2594 10.816 51.8914 12.496 51.8914 14.704ZM55.6718 20H57.3678V15.648H61.5598V14.112H57.3678V10.96H62.4558V9.44H55.6718V20ZM64.1405 20H65.8365V15.648H70.0285V14.112H65.8365V10.96H70.9245V9.44H64.1405V20Z" fill="white"/>
</symbol>

<symbol id="arrowdown" width="16" height="16" viewBox="0 0 16 16" fill="none">
<path d="M12.6666 5.66675L7.99992 10.3334L3.33325 5.66675" stroke="#3D3D3D" stroke-width="1.5" stroke-linecap="round" stroke-linejoin="round"/>
</symbol>

<symbol id="arrowright" width="18" height="18" viewBox="0 0 18 18" fill="none">
<path d="M6.375 3.75C6.375 3.75 11.625 6.858 11.625 9C11.625 11.1413 6.375 14.25 6.375 14.25" stroke="#3D3D3D" stroke-width="1.5" stroke-linecap="round" stroke-linejoin="round"/>
</symbol>

<symbol id="cart" width="31" height="24" viewBox="0 0 31 24" fill="none">
<path d="M17.1567 20.25H9.89163C6.79003 20.25 4.26667 17.7267 4.26667 14.6251V8.85947C4.26667 5.9762 2.82958 3.30739 0.422521 1.72031C-0.00975775 1.43531 -0.129101 0.853876 0.155897 0.421598C0.440896 -0.0107278 1.02228 -0.130118 1.45465 0.154974C2.82874 1.06097 3.94351 2.2559 4.74067 3.63167C4.91293 3.82466 6.30202 5.29699 8.57919 5.29699H19.3748C22.3201 5.24191 24.6254 8.19769 23.8554 11.0406L22.6126 15.9939C21.9839 18.4998 19.7404 20.25 17.1567 20.25ZM5.90513 6.64234C6.06099 7.36238 6.14166 8.10483 6.14166 8.85947V14.6251C6.14166 16.6928 7.8239 18.375 9.89163 18.375H17.1567C18.8792 18.375 20.3748 17.2082 20.794 15.5376L22.0367 10.5844C22.4943 8.89509 21.1243 7.13931 19.3748 7.17198H8.57914C7.54926 7.17198 6.65283 6.94993 5.90513 6.64234ZM9.42289 22.8281C9.42289 22.1809 8.89822 21.6563 8.25102 21.6563C6.69609 21.7182 6.69745 23.9387 8.25102 24C8.89822 24 9.42289 23.4753 9.42289 22.8281ZM18.751 22.8281C18.751 22.1809 18.2263 21.6563 17.5791 21.6563C16.0242 21.7182 16.0255 23.9387 17.5791 24C18.2263 24 18.751 23.4753 18.751 22.8281ZM20.3123 9.98446C20.3123 9.46668 19.8925 9.04697 19.3748 9.04697H8.95414C7.71027 9.09647 7.71121 10.8729 8.95414 10.922H19.3748C19.8925 10.922 20.3123 10.5022 20.3123 9.98446Z" fill="#3D3D3D"/>
<circle cx="23.001" cy="8" r="7" fill="#46A358" stroke="white" stroke-width="2"/>
<path d="M25.121 8.83C25.121 7.58 24.101 6.62 22.951 6.62C22.841 6.62 22.751 6.63 22.661 6.65L24.251 4.4H23.001L21.351 6.73C21.121 7.06 20.951 7.31 20.841 7.49C20.731 7.67 20.641 7.87 20.561 8.1C20.491 8.32 20.451 8.56 20.451 8.82C20.421 10.12 21.531 11.13 22.781 11.11C24.041 11.11 25.121 10.12 25.121 8.83ZM24.071 8.83C24.071 9.2 23.941 9.52 23.691 9.77C23.441 10.02 23.141 10.14 22.781 10.14C22.411 10.14 22.111 10.02 21.861 9.77C21.611 9.52 21.491 9.2 21.491 8.83C21.491 8.46 21.611 8.15 21.861 7.9C22.111 7.65 22.411 7.52 22.781 7.52C23.141 7.52 23.441 7.65 23.691 7.9C23.941 8.15 24.071 8.46 24.071 8.83Z" fill="white"/>
</symbol>

<symbol id="email" width="20" height="20" viewBox="0 0 20 20" fill="none">
<path d="M14.621 7.51581C14.621 7.51581 11.946 10.7263 9.98943 10.7263C8.03371 10.7263 5.32861 7.51581 5.32861 7.51581" stroke="#46A358" stroke-width="1.5" stroke-linecap="round" stroke-linejoin="round"/>
<path fill-rule="evenodd" clip-rule="evenodd" d="M2.04346 9.97397C2.04346 4.27556 4.02758 2.37665 9.97997 2.37665C15.9323 2.37665 17.9165 4.27556 17.9165 9.97397C17.9165 15.6716 15.9323 17.5713 9.97997 17.5713C4.02758 17.5713 2.04346 15.6716 2.04346 9.97397Z" stroke="#46A358" stroke-width="1.5" stroke-linecap="round" stroke-linejoin="round"/>
</symbol>

<symbol id="Facebook" width="8" height="16" viewBox="0 0 8 16" fill="none">
<path d="M2 5.33333H0V8H2V16H5.33333V8H7.73333L8 5.33333H5.33333V4.2C5.33333 3.6 5.46667 3.33333 6.06667 3.33333H8V0H5.46667C3.06667 0 2 1.06667 2 3.06667V5.33333Z" fill="#46A358" fill-opacity="0.6"/>
</symbol>

<symbol id="frame" width="32" height="32" viewBox="0 0 32 32" fill="none">
<rect x="0.5" y="0.5" width="31" height="31" rx="4.5" stroke="#46A358" stroke-opacity="0.2"/>
</symbol>

<symbol id="greencart" width="20" height="20" viewBox="0 0 20 20" fill="none">
<g clip-path="url(#clip0_1_128)">
<path d="M14.294 16.8745H8.24077C5.65655 16.8745 3.55412 14.7721 3.55412 12.1879V7.38404C3.55412 4.98174 2.35676 2.75812 0.351225 1.43578C-0.00894369 1.19832 -0.108379 0.71388 0.129078 0.353711C0.366535 -0.00649689 0.850939 -0.105971 1.21119 0.131564C2.35606 0.886427 3.28487 1.88203 3.94905 3.0283C4.09258 3.1891 5.24995 4.41583 7.14726 4.41583H16.142C18.596 4.36994 20.5168 6.83265 19.8752 9.20136L18.8397 13.3283C18.3159 15.4163 16.4466 16.8745 14.294 16.8745ZM4.91926 5.53676C5.04912 6.13669 5.11634 6.75528 5.11634 7.38404V12.1879C5.11634 13.9107 6.51796 15.3123 8.24077 15.3123H14.294C15.7291 15.3123 16.9752 14.3401 17.3245 12.9482L18.3599 8.8212C18.7412 7.41372 17.5997 5.95082 16.142 5.97804H7.14722C6.28913 5.97804 5.54224 5.79304 4.91926 5.53676ZM7.85021 19.0226C7.85021 18.4833 7.41307 18.0462 6.87383 18.0462C5.57828 18.0978 5.57942 19.9479 6.87383 19.9989C7.41307 19.9989 7.85021 19.5618 7.85021 19.0226ZM15.6222 19.0226C15.6222 18.4833 15.1851 18.0462 14.6459 18.0462C13.3503 18.0978 13.3514 19.9479 14.6459 19.9989C15.1851 19.9989 15.6222 19.5618 15.6222 19.0226ZM16.9231 8.32137C16.9231 7.88996 16.5734 7.54026 16.142 7.54026H7.45966C6.42329 7.5815 6.42407 9.06158 7.45966 9.10248H16.142C16.5734 9.10248 16.9231 8.75277 16.9231 8.32137Z" fill="#46A358"/>
</g>
<defs>
<clipPath>
<rect width="20" height="20" fill="white"/>
</clipPath>
</defs>
</symbol>

<symbol id="heart" width="20" height="20" viewBox="0 0 20 20" fill="none">
<path d="M10 18.8873C9.71527 18.8873 9.44077 18.7842 9.22684 18.5968C8.41888 17.8903 7.63992 17.2264 6.95267 16.6408L6.94916 16.6377C4.93423 14.9207 3.19427 13.4378 1.98364 11.9771C0.630341 10.3441 0 8.79578 0 7.10434C0 5.46097 0.563507 3.94485 1.58661 2.83508C2.62192 1.71219 4.04251 1.09375 5.58716 1.09375C6.74164 1.09375 7.79892 1.45874 8.72955 2.1785C9.19922 2.54181 9.62494 2.98645 10 3.5051C10.3752 2.98645 10.8008 2.54181 11.2706 2.1785C12.2012 1.45874 13.2585 1.09375 14.413 1.09375C15.9575 1.09375 17.3782 1.71219 18.4135 2.83508C19.4366 3.94485 20 5.46097 20 7.10434C20 8.79578 19.3698 10.3441 18.0165 11.9769C16.8059 13.4378 15.0661 14.9205 13.0515 16.6374C12.363 17.224 11.5828 17.8889 10.773 18.5971C10.5592 18.7842 10.2846 18.8873 10 18.8873ZM5.58716 2.26532C4.37363 2.26532 3.25882 2.74963 2.44781 3.62915C1.62476 4.52194 1.17142 5.75607 1.17142 7.10434C1.17142 8.52692 1.70013 9.79919 2.88559 11.2296C4.03137 12.6122 5.73563 14.0645 7.70889 15.7462L7.71255 15.7492C8.4024 16.3371 9.18442 17.0036 9.99832 17.7153C10.8171 17.0023 11.6003 16.3347 12.2916 15.7458C14.2647 14.0642 15.9688 12.6122 17.1146 11.2296C18.2999 9.79919 18.8286 8.52692 18.8286 7.10434C18.8286 5.75607 18.3752 4.52194 17.5522 3.62915C16.7413 2.74963 15.6264 2.26532 14.413 2.26532C13.524 2.26532 12.7078 2.54791 11.9872 3.10516C11.3449 3.60199 10.8975 4.23004 10.6352 4.66949C10.5003 4.89548 10.2629 5.03036 10 5.03036C9.73709 5.03036 9.49966 4.89548 9.36478 4.66949C9.10263 4.23004 8.65524 3.60199 8.01285 3.10516C7.29218 2.54791 6.47598 2.26532 5.58716 2.26532Z" fill="#3D3D3D"/>
</symbol>

<symbol id="Instagram" width="16" height="16" viewBox="0 0 16 16" fill="none">
<path d="M8 1.46667C10.1333 1.46667 10.4 1.46667 11.2667 1.53333C13.4667 1.6 14.4667 2.66667 14.5333 4.8C14.6 5.66667 14.6 5.86667 14.6 8C14.6 10.1333 14.6 10.4 14.5333 11.2C14.4667 13.3333 13.4 14.4 11.2667 14.4667C10.4 14.5333 10.2 14.5333 8 14.5333C5.86667 14.5333 5.6 14.5333 4.8 14.4667C2.6 14.4 1.6 13.3333 1.53333 11.2C1.46667 10.3333 1.46667 10.1333 1.46667 8C1.46667 5.86667 1.46667 5.6 1.53333 4.8C1.6 2.66667 2.66667 1.6 4.8 1.53333C5.6 1.46667 5.86667 1.46667 8 1.46667ZM8 0C5.8 0 5.53333 0 4.73333 0.0666667C1.8 0.2 0.2 1.8 0.0666667 4.73333C0 5.53333 0 5.8 0 8C0 10.2 0 10.4667 0.0666667 11.2667C0.2 14.2 1.8 15.8 4.73333 15.9333C5.53333 16 5.8 16 8 16C10.2 16 10.4667 16 11.2667 15.9333C14.2 15.8 15.8 14.2 15.9333 11.2667C16 10.4667 16 10.2 16 8C16 5.8 16 5.53333 15.9333 4.73333C15.8 1.8 14.2 0.2 11.2667 0.0666667C10.4667 0 10.2 0 8 0ZM8 3.86667C5.73333 3.86667 3.86667 5.73333 3.86667 8C3.86667 10.2667 5.73333 12.1333 8 12.1333C10.2667 12.1333 12.1333 10.2667 12.1333 8C12.1333 5.73333 10.2667 3.86667 8 3.86667ZM8 10.6667C6.53333 10.6667 5.33333 9.46667 5.33333 8C5.33333 6.53333 6.53333 5.33333 8 5.33333C9.46667 5.33333 10.6667 6.53333 10.6667 8C10.6667 9.46667 9.46667 10.6667 8 10.6667ZM12.2667 2.8C11.7333 2.8 11.3333 3.2 11.3333 3.73333C11.3333 4.26667 11.7333 4.66667 12.2667 4.66667C12.8 4.66667 13.2 4.26667 13.2 3.73333C13.2 3.2 12.8 2.8 12.2667 2.8Z" fill="#46A358" fill-opacity="0.6"/>
</symbol>

<symbol id="Linkedin" width="16" height="16" viewBox="0 0 16 16" fill="none">
<path d="M3.33333 1.66667C3.33333 2.6 2.6 3.33333 1.66667 3.33333C0.733333 3.33333 0 2.6 0 1.66667C0 0.733333 0.733333 0 1.66667 0C2.6 0 3.33333 0.733333 3.33333 1.66667ZM3.33333 4.66667H0V15.3333H3.33333V4.66667ZM8.66667 4.66667H5.33333V15.3333H8.66667V9.73333C8.66667 6.6 12.6667 6.33333 12.6667 9.73333V15.3333H16V8.6C16 3.33333 10.0667 3.53333 8.66667 6.13333V4.66667Z" fill="#46A358" fill-opacity="0.6"/>
</symbol>

<symbol id="location" width="20" height="20" viewBox="0 0 20 20" fill="none">
<path fill-rule="evenodd" clip-rule="evenodd" d="M12.092 8.92543C12.092 7.77437 11.1593 6.84167 10.0082 6.84167C8.85799 6.84167 7.92529 7.77437 7.92529 8.92543C7.92529 10.0756 8.85799 11.0083 10.0082 11.0083C11.1593 11.0083 12.092 10.0756 12.092 8.92543Z" stroke="#46A358" stroke-width="1.5" stroke-linecap="round" stroke-linejoin="round"/>
<path fill-rule="evenodd" clip-rule="evenodd" d="M9.99959 17.5C7.58457 17.5 3.75 13.2989 3.75 8.8322C3.75 5.33539 6.54758 2.5 9.99959 2.5C13.4516 2.5 16.25 5.33539 16.25 8.8322C16.25 13.2989 12.4154 17.5 9.99959 17.5Z" stroke="#46A358" stroke-width="1.5" stroke-linecap="round" stroke-linejoin="round"/>
</symbol>

<symbol id="login" width="20" height="20" viewBox="0 0 20 20" fill="none">
<path d="M18.1601 10.1003H8.12598" stroke="white" stroke-width="1.5" stroke-linecap="round" stroke-linejoin="round"/>
<path d="M15.7212 7.67041L18.1612 10.1004L15.7212 12.5304" stroke="white" stroke-width="1.5" stroke-linecap="round" stroke-linejoin="round"/>
<path d="M13.634 6.35817C13.359 3.37484 12.2424 2.2915 7.8007 2.2915C1.8832 2.2915 1.8832 4.2165 1.8832 9.99984C1.8832 15.7832 1.8832 17.7082 7.8007 17.7082C12.2424 17.7082 13.359 16.6248 13.634 13.6415" stroke="white" stroke-width="1.5" stroke-linecap="round" stroke-linejoin="round"/>
</symbol>

<symbol id="logo" width="35" height="35" viewBox="0 0 35 35" fill="none">
<path d="M17.15 0C7.67748 0 0 7.67746 0 17.15C0 26.0201 6.73548 33.3175 15.3711 34.207C14.8496 29.9134 15.0436 26.4001 15.7067 23.5135C15.3347 21.7225 14.4898 19.0703 12.5734 17.1864C12.5734 17.1864 13.8348 19.0784 14.5181 21.6214C14.5181 21.6255 14.5221 21.6295 14.5221 21.6335C14.5949 21.9044 14.6596 22.1793 14.7162 22.4623C14.7283 22.527 14.7404 22.5917 14.7526 22.6604C14.8051 22.9515 14.8536 23.2426 14.886 23.5418C5.19513 22.3532 3.12921 13.6569 3.35561 10.3781C13.665 10.9482 15.7754 17.8292 16.0827 22.0985C19.4585 11.0412 30.1843 10.4024 31.0697 10.3781C31.4538 18.8763 25.1509 25.5026 17.6149 26.0807C17.6635 25.8503 17.7201 25.6198 17.7767 25.3934C17.7928 25.3247 17.813 25.26 17.8333 25.1913C17.8777 25.0296 17.9222 24.8679 17.9748 24.7061C17.995 24.6374 18.0192 24.5646 18.0394 24.4959C18.096 24.318 18.1567 24.1442 18.2173 23.9663C18.2335 23.9259 18.2456 23.8854 18.2618 23.845C18.3386 23.6348 18.4195 23.4326 18.5003 23.2305C18.5084 23.2143 18.5125 23.1941 18.5205 23.1779C18.5205 23.1779 18.5205 23.1779 18.5246 23.1779C20.4571 18.5043 24.0229 15.4439 24.0229 15.4439C17.0247 19.4868 15.8441 29.9983 15.6582 34.2231C16.1514 34.2676 16.6446 34.2999 17.15 34.2999C26.6225 34.2999 34.3 26.6225 34.3 17.15C34.3 7.67746 26.6225 0 17.15 0Z" fill="#46A358"/>
</symbol>

<symbol id="phone" width="20" height="20" viewBox="0 0 20 20" fill="none">
<path d="M11.9604 2.29175C15.0446 2.63425 17.4813 5.06758 17.8279 8.15175" stroke="#46A358" stroke-width="1.5" stroke-linecap="round" stroke-linejoin="round"/>
<path d="M11.9604 5.24426C13.4363 5.53093 14.5896 6.6851 14.8771 8.16093" stroke="#46A358" stroke-width="1.5" stroke-linecap="round" stroke-linejoin="round"/>
<path fill-rule="evenodd" clip-rule="evenodd" d="M6.41715 13.5825C0.668834 7.83352 1.48623 5.20096 2.0922 4.35263C2.17005 4.21552 4.08881 1.34323 6.14557 3.02839C11.2508 7.23288 4.78767 6.63843 9.07458 10.9261C13.3624 15.2128 12.767 8.74996 16.9717 13.8541C18.6569 15.9117 15.7845 17.8303 15.6483 17.9073C14.7999 18.5141 12.1664 19.3315 6.41715 13.5825Z" stroke="#46A358" stroke-width="1.5" stroke-linecap="round" stroke-linejoin="round"/>
</symbol>

<symbol id="search" width="20" height="20" viewBox="0 0 20 20" fill="none">
<path d="M14.5726 16.0029C10.5755 19.1865 4.988 18.3056 2.02842 14.6542C-0.828088 11.129 -0.64944 6.04347 2.44943 2.82482C5.65137 -0.500594 10.6854 -0.944524 14.3346 1.78337C15.642 2.76051 16.6183 4.00364 17.2542 5.50838C17.8938 7.02186 18.0881 8.59654 17.8663 10.2205C17.6452 11.837 17 13.2775 15.9499 14.6217C16.0349 14.6773 16.1255 14.7173 16.1904 14.7822C17.3448 15.9311 18.4947 17.0843 19.6491 18.2331C19.9227 18.5054 20.0589 18.8225 19.9776 19.2047C19.8165 19.9651 18.9107 20.2586 18.3298 19.7366C18.0575 19.4925 17.807 19.2234 17.5484 18.9649C16.6002 18.0177 15.6526 17.0699 14.7044 16.1227C14.665 16.0853 14.6238 16.0503 14.5726 16.0029ZM15.9605 8.98677C15.9705 5.12689 12.8529 2.00627 8.98261 2.00065C5.12292 1.99503 2.00781 5.09068 1.99094 8.94806C1.97408 12.8173 5.08544 15.9467 8.96762 15.9648C12.8117 15.9829 15.9505 12.8504 15.9605 8.98677Z" fill="#3D3D3D"/>
</symbol>

<symbol id="search2" width="20" height="20" viewBox="0 0 20 20" fill="none">
<g clip-path="url(#clip0_1_132)">
<path d="M14.5655 16.0022C10.5703 19.1858 4.98543 18.3048 2.02723 14.6536C-0.827947 11.1284 -0.649381 6.04306 2.44805 2.8245C5.6485 -0.500824 10.6802 -0.944742 14.3277 1.78307C15.6344 2.76019 16.6103 4.00328 17.2459 5.50798C17.8852 7.02142 18.0794 8.59605 17.8578 10.22C17.6367 11.8365 16.9918 13.2769 15.9422 14.6211C16.0272 14.6767 16.1177 14.7166 16.1826 14.7816C17.3364 15.9304 18.4859 17.0836 19.6397 18.2324C19.9131 18.5046 20.0493 18.8218 19.9681 19.2039C19.807 19.9643 18.9017 20.2578 18.321 19.7358C18.0488 19.4917 17.7985 19.2226 17.54 18.9641C16.5922 18.017 15.6451 17.0692 14.6973 16.122C14.6579 16.0846 14.6167 16.0496 14.5655 16.0022ZM15.9529 8.98627C15.9629 5.1265 12.8467 2.00597 8.97818 2.00035C5.12029 1.99473 2.00663 5.09029 1.98977 8.94757C1.97291 12.8167 5.08283 15.946 8.9632 15.9641C12.8055 15.9822 15.9429 12.8498 15.9529 8.98627Z" fill="#3D3D3D"/>
</g>
<defs>
<clipPath>
<rect width="19.9913" height="20" fill="white"/>
</clipPath>
</defs>
</symbol>

<symbol id="Twitter" width="16" height="13" viewBox="0 0 16 13" fill="none">
<path d="M5.03186 13.0036C11.0699 13.0036 14.3718 8.00118 14.3718 3.66357C14.3718 3.52144 14.3689 3.38005 14.3624 3.2392C15.0033 2.77588 15.5605 2.19756 16 1.53953C15.4118 1.80085 14.7789 1.97682 14.1149 2.05616C14.7926 1.64981 15.313 1.0067 15.5585 0.24021C14.9241 0.616357 14.2217 0.889688 13.4742 1.03709C12.8749 0.399076 12.0218 0 11.0779 0C9.26483 0 7.79464 1.4702 7.79464 3.28233C7.79464 3.54001 7.82357 3.79041 7.87962 4.0308C5.1516 3.89377 2.73239 2.58735 1.11352 0.601253C0.831273 1.08622 0.668767 1.64999 0.668767 2.25106C0.668767 3.38988 1.24837 4.3953 2.12968 4.98363C1.59121 4.96707 1.08531 4.81894 0.642926 4.57291C0.642198 4.58656 0.642198 4.60039 0.642198 4.61476C0.642198 6.2047 1.77392 7.53204 3.27578 7.83285C3.00008 7.90801 2.71001 7.94841 2.41047 7.94841C2.19901 7.94841 1.99338 7.9273 1.79339 7.88927C2.21121 9.19332 3.42318 10.1425 4.86007 10.1693C3.73636 11.0499 2.32094 11.5745 0.783049 11.5745C0.518272 11.5745 0.256952 11.5594 0 11.529C1.45273 12.46 3.17769 13.0036 5.03186 13.0036Z" fill="#46A358" fill-opacity="0.6"/>
</symbol>

<symbol id="Union" width="19" height="14" viewBox="0 0 19 14" fill="none">
<path fill-rule="evenodd" clip-rule="evenodd" d="M15.1653 4.42995L15.168 4.43062C15.168 4.43062 15.1676 4.4305 15.1667 4.4303C15.1663 4.4302 15.1658 4.43008 15.1653 4.42995ZM4.32444 4.35686C6.91762 4.19575 11.7483 4.19575 14.3415 4.35686L14.3422 4.3644C14.4047 4.99716 14.4299 5.84143 14.4299 7.01915C14.4299 8.18238 14.4053 9.02689 14.3441 9.66498C11.6962 9.77026 6.97129 9.77027 4.32282 9.66502C4.261 9.03324 4.23602 8.19137 4.23602 7.01915C4.23602 5.84143 4.26123 4.99716 4.32369 4.3644L4.32444 4.35686ZM15.2422 9.61106C15.2422 9.61109 15.2405 9.61148 15.237 9.61215L15.2422 9.61106ZM3.49794 9.60768L3.50063 9.60836C3.49881 9.60793 3.49792 9.60769 3.49794 9.60768ZM0 7.01915C0 11.8412 0.388873 13.63 3.42208 13.8633C6.22196 14.0189 12.4439 14.0189 15.2438 13.8633C18.277 13.7078 18.6659 11.8412 18.6659 7.01915C18.6659 2.19713 18.277 0.408316 15.2438 0.174993C12.4439 -0.0583309 6.22196 -0.0583309 3.42208 0.174993C0.388873 0.408316 0 2.19713 0 7.01915ZM3.49794 4.43062C3.49792 4.43061 3.49884 4.43037 3.50073 4.42992L3.49794 4.43062ZM9.78228 8.73886C8.50388 9.37806 6.99973 8.44845 6.99973 7.01915C6.99973 5.58986 8.50388 4.66025 9.78228 5.29945C11.1994 6.008 11.1994 8.0303 9.78228 8.73886Z" fill="#46A358" fill-opacity="0.6"/>
</symbol>

<symbol id="UP TO 75% OFF" width="165" height="17" viewBox="0 0 165 17" fill="none">
<path d="M0.751602 9.721C0.751602 13.746 3.4656 16.276 7.1916 16.276C10.8716 16.276 13.6316 13.746 13.6316 9.721V0.819999H10.5266V9.951C10.5266 12.159 9.1926 13.401 7.1916 13.401C5.2366 13.401 3.8566 12.159 3.8566 9.951V0.819999H0.751602V9.721ZM16.9941 16H20.0991V10.641H22.6981C25.8721 10.641 28.1721 8.617 28.1721 5.719C28.1721 2.798 25.8721 0.819999 22.6981 0.819999H16.9941V16ZM20.0991 7.927V3.557H22.6981C24.1011 3.557 24.9981 4.431 24.9981 5.719C24.9981 7.03 24.1471 7.927 22.6981 7.927H20.0991ZM38.6818 16H41.7868V3.626H46.6628V0.819999H33.8288V3.626H38.6818V16ZM47.5429 8.41C47.4739 12.757 51.2229 16.368 55.5929 16.276C59.9629 16.368 63.7579 12.757 63.6889 8.41C63.7579 4.063 59.9629 0.451999 55.5929 0.543999C51.2229 0.451999 47.4739 4.063 47.5429 8.41ZM60.4919 8.41C60.4919 11.331 58.3989 13.401 55.6159 13.401C52.8099 13.401 50.7399 11.331 50.7399 8.41C50.7399 5.489 52.8099 3.419 55.6159 3.419C58.3989 3.419 60.4919 5.535 60.4919 8.41ZM71.8906 0.819999V3.626H78.3996L72.2356 16H75.6166L82.5626 1.648V0.819999H71.8906ZM95.0376 11.009C95.0376 7.927 92.5306 6.202 89.9086 6.202C89.3336 6.202 88.7586 6.271 88.1836 6.386V3.626H94.1636V0.819999H85.1936V8.87H88.7356C90.7596 8.87 91.8406 9.606 91.8406 11.055C91.8406 12.504 90.6906 13.401 89.1266 13.401C87.6546 13.401 86.6426 12.688 85.7456 11.308L83.5836 12.826C84.6186 14.919 86.6426 16.276 89.2186 16.276C92.4616 16.276 95.0376 14.114 95.0376 11.009ZM97.371 4.316C97.371 6.455 99.142 8.111 101.304 8.111C103.443 8.111 105.214 6.455 105.214 4.316C105.214 2.177 103.443 0.543999 101.304 0.543999C99.142 0.543999 97.371 2.177 97.371 4.316ZM100.384 16H102.868L111.608 0.819999H109.101L100.384 16ZM102.822 4.316C102.822 5.305 102.178 5.972 101.327 5.972C100.384 5.972 99.786 5.305 99.786 4.316C99.786 3.373 100.407 2.683 101.327 2.683C102.178 2.683 102.822 3.373 102.822 4.316ZM106.755 12.458C106.755 14.597 108.526 16.253 110.665 16.253C112.827 16.253 114.598 14.597 114.598 12.458C114.598 10.319 112.804 8.686 110.665 8.686C108.526 8.686 106.755 10.319 106.755 12.458ZM112.183 12.458C112.183 13.401 111.539 14.091 110.688 14.091C109.745 14.091 109.147 13.447 109.147 12.458C109.147 11.469 109.745 10.825 110.688 10.825C111.539 10.825 112.183 11.515 112.183 12.458ZM123.214 8.41C123.145 12.757 126.894 16.368 131.264 16.276C135.634 16.368 139.429 12.757 139.36 8.41C139.429 4.063 135.634 0.451999 131.264 0.543999C126.894 0.451999 123.145 4.063 123.214 8.41ZM136.163 8.41C136.163 11.331 134.07 13.401 131.287 13.401C128.481 13.401 126.411 11.331 126.411 8.41C126.411 5.489 128.481 3.419 131.287 3.419C134.07 3.419 136.163 5.535 136.163 8.41ZM141.989 16H145.094V10.227H150.729V7.421H145.094V3.626H151.971V0.819999H141.989V16ZM154.298 16H157.403V10.227H163.038V7.421H157.403V3.626H164.28V0.819999H154.298V16Z" fill="#3D3D3D"/>
</symbol>

<svg id="frame"width="80" height="29" viewBox="0 0 80 29" fill="none" xmlns="http://www.w3.org/2000/svg">
<rect width="80" height="29" fill="#46A358"/>
<path d="M13.048 9.44L9.384 10.64L9.8 12.128L11.944 11.44V20H13.64V9.44H13.048ZM23.1384 16.608C23.1384 15.696 22.8664 14.96 22.3224 14.4C21.7784 13.84 21.1224 13.488 20.3384 13.36L22.8984 9.904V9.44H16.3224V10.992H20.2584L17.7944 14.304V14.768H18.9624C20.5144 14.768 21.3944 15.424 21.3944 16.624C21.3944 17.824 20.4984 18.624 19.2344 18.624C18.1464 18.624 17.3944 18.032 16.7544 17.056L15.5704 17.888C16.2744 19.248 17.5704 20.176 19.2824 20.176C21.3624 20.176 23.1384 18.752 23.1384 16.608ZM24.7416 11.856C24.7416 13.328 25.9416 14.464 27.4296 14.464C28.8696 14.464 30.0856 13.328 30.0856 11.856C30.0856 10.416 28.8696 9.264 27.4296 9.264C25.9416 9.264 24.7416 10.416 24.7416 11.856ZM26.8536 20H28.2616L34.3256 9.44H32.9016L26.8536 20ZM28.7576 11.856C28.7576 12.672 28.1816 13.264 27.4296 13.264C26.6456 13.264 26.1016 12.672 26.1016 11.856C26.1016 11.04 26.6616 10.448 27.4296 10.448C28.1816 10.448 28.7576 11.072 28.7576 11.856ZM31.0776 17.568C31.0776 19.008 32.2616 20.16 33.7336 20.16C35.1896 20.16 36.4056 19.008 36.4056 17.568C36.4056 16.096 35.2056 14.96 33.7336 14.96C32.2616 14.96 31.0776 16.096 31.0776 17.568ZM35.0616 17.568C35.0616 18.352 34.5016 18.96 33.7496 18.96C32.9656 18.96 32.4216 18.384 32.4216 17.568C32.4216 16.736 32.9656 16.16 33.7496 16.16C34.5016 16.16 35.0616 16.752 35.0616 17.568ZM42.5474 14.72C42.4834 17.744 45.0594 20.224 48.0834 20.176C51.0754 20.224 53.6994 17.744 53.6354 14.72C53.6994 11.696 51.0754 9.216 48.0834 9.264C45.0754 9.216 42.4994 11.696 42.5474 14.72ZM51.8914 14.704C51.8914 16.96 50.2594 18.624 48.0994 18.624C45.9074 18.624 44.3074 16.96 44.3074 14.704C44.3074 12.48 45.9074 10.816 48.0994 10.816C50.2594 10.816 51.8914 12.496 51.8914 14.704ZM55.6718 20H57.3678V15.648H61.5598V14.112H57.3678V10.96H62.4558V9.44H55.6718V20ZM64.1405 20H65.8365V15.648H70.0285V14.112H65.8365V10.96H70.9245V9.44H64.1405V20Z" fill="white"/>
</svg>
<svg id="arrow" width="7" height="10" viewBox="0 0 7 10" fill="none" xmlns="http://www.w3.org/2000/svg">
<path d="M1.14228 0.945805C0.909014 0.730097 0.908201 0.379612 1.14046 0.162973C1.35161 -0.0339699 1.68269 -0.0524979 1.9164 0.107825L1.98337 0.161288L6.79132 4.60737C7.00401 4.80406 7.02336 5.11265 6.84935 5.32969L6.79135 5.39186L1.9834 9.83868C1.75016 10.0544 1.37278 10.0537 1.1405 9.83706C0.929333 9.64013 0.910782 9.33257 1.08439 9.1162L1.14224 9.05423L5.52584 4.99941L1.14228 0.945805Z" fill="#3D3D3D"/>
</svg>
<svg id="mark" focusable="false" aria-hidden="true" xmlns="http://www.w3.org/2000/svg" viewBox="0 0 14 14"><path fill="#43a047" d="M1.00000001 7.71134025l3.83505154 3.8041237 8.16494844-8.16494844-.86597938-.86597938L4.83505155 9.7835052 1.86597939 6.81443303z"/></svg>


</svg>
